# xmcd
#
# Track frame offsets: 
#        150
#        23625
#        49500
#
# Disc length: 942 seconds
#
# Revision: 4
# Processed by: cddbd v1.5.2PL0 Copyright (c) Steve Scherf et al.
# Submitted via: ExactAudioCopy v0.99pb3
#
DISCID=1703ac03
DTITLE=J.T. and the Big Family - Moments In Soul
DYEAR=1989
DGENRE=House
TTITLE0=Moments In Soul
TTITLE1=Eden 90
TTITLE2=Moments In Soul (Bonus mix)
EXTD=
EXTT0=
EXTT1=
EXTT2=Bonus Mix
PLAYORDER=
